<svg preserveAspectRatio="none" overflow="visible" style="display: block;" width="27.9025" height="27.9025" viewBox="0 0 27.9025 27.9025" fill="none" xmlns="http://www.w3.org/2000/svg">
<g id="cib:youtube" clip-path="url(#clip0_0_52)">
<path id="Vector" d="M27.3166 7.21193C27.1545 6.63272 26.8457 6.10516 26.4199 5.68033C25.9942 5.2555 25.466 4.9478 24.8864 4.78702C22.7109 4.20543 13.9652 4.20543 13.9652 4.20543C13.9652 4.20543 5.23608 4.19148 3.03789 4.78702C2.45926 4.94851 1.93207 5.25653 1.50728 5.68132C1.08249 6.10611 0.774469 6.6333 0.612983 7.21193C0.199852 9.43909 -0.00362206 11.7001 0.00523172 13.9652C0.0012006 16.2194 0.204642 18.4693 0.612983 20.6862C0.774991 21.2652 1.08311 21.7927 1.50775 22.2183C1.93239 22.6438 2.4593 22.9531 3.03789 23.1164C5.21341 23.6979 13.9652 23.6979 13.9652 23.6979C13.9652 23.6979 22.6891 23.6979 24.8864 23.1164C25.4659 22.9538 25.9939 22.6449 26.4195 22.2193C26.8451 21.7937 27.154 21.2657 27.3166 20.6862C27.7168 18.4706 27.9121 16.2175 27.8981 13.9652C27.9121 11.6981 27.7211 9.44151 27.3166 7.21193V7.21193ZM11.1715 18.1392V9.77285L18.4514 13.9652L11.1715 18.1392Z" fill="white"/>
</g>
<defs>
<clipPath id="clip0_0_52">
<rect width="27.9025" height="27.9025" fill="white"/>
</clipPath>
</defs>
</svg>
